<?xml version="1.0" encoding="UTF-8"?>
<svg id="katman_2" data-name="katman 2" xmlns="http://www.w3.org/2000/svg" viewBox="0 0 3838.09 3838.09">
  <defs>
    <style>
      .cls-1 {
        fill: #fff;
      }

      .cls-2 {
        fill: #1977ff;
      }
    </style>
  </defs>
  <g id="katman_1" data-name="katman 1">
    <circle class="cls-2" cx="1919.04" cy="1919.04" r="1919.04"/>
    <path class="cls-1" d="M1064.17,2648.07l-6.72-2.24c-.65-.22-1.34-.24-2.01-.08l-7.04,1.76c-1.47.56-2.76,1.05-4.16,1.79l-54.58,34.74c-10.28,7.71-20.55,10.27-33.4,10.27h-190.1c-7.71,0-15.41-4.78-15.41-12.84V962.85c0-9.93,8.05-17.98,17.98-17.98h246.62c10.28,0,17.98,0,28.26,2.57,4.8,1.65,12.84,7.71,12.84,12.84v578.01c0,10.28,0,20.55,2.57,33.4,1.88,4.68,5.27,9.02,10.28,7.71l20.55-7.71c87.34-46.24,177.26-64.22,274.88-64.22,326.25,5.14,572.87,262.03,598.56,542.04l2.57,64.22c0,339.1-274.88,608.84-598.56,608.84-143.86-7.71-177.26-15.41-303.13-74.5ZM1657.59,2129.15v-25.69c0-136.15-115.6-287.72-295.43-287.72-164.41,0-300.57,123.31-305.7,300.57,5.14,182.39,156.7,298,298,300.57h5.14c156.7,0,298-136.15,298-287.72Z"/>
    <path class="cls-1" d="M2068.58,2103.46c7.71-118.17,46.24-262.03,128.45-359.65,131.01-161.84,298-236.34,480.39-236.34,95.05,0,208.08,25.69,295.43,74.5,3.62,2.23,5.14,2.57,10.28,2.57,2.57,0,4.6-.55,7.71-2.57,28.26-17.98,53.95-48.81,92.48-48.81h187.53c5.82,0,12.84,7.71,12.84,12.84v1135.47c0,18.86-10.31,15.41-23.12,15.41h-259.46c-13.66,0-20.55,0-20.55-10.28l-5.14-28.26c-.59-2.91-7.28-6.71-10.28-5.14-97.62,46.24-172.12,71.93-287.72,71.93-346.81-10.27-608.84-272.31-608.84-621.68ZM2823.84,2378.33c110.46-59.09,154.13-159.27,154.13-274.88,0-159.27-156.7-287.72-300.56-287.72-161.84,0-300.57,133.58-300.57,295.43,5.14,172.12,128.45,303.13,287.72,303.13l26.4-.28,24.71-1.16c51.35-6.56,64.5-11.4,108.17-34.52Z"/>
    <path class="cls-1" d="M860.8,1104.51c3.22,0,3.22-5,0-5s-3.22,5,0,5h0Z"/>
    <path class="cls-1" d="M910.22,1246.6c3.22,0,3.22-5,0-5s-3.22,5,0,5h0Z"/>
  </g>
</svg>